<svg version="1.2" xmlns="http://www.w3.org/2000/svg" viewBox="0 0 1575 392" width="1575" height="392">
	<title>epiepi-svg</title>
	<style>
		.s0 { fill: #ffffff } 
	</style>
	<path id="Layer" class="s0" d="m38 365.4v-140.3c0-13.3-8.8-22.5-23.7-27q-1.7-0.6-3.5-1-1.8-0.5-3.6-0.8-1.8-0.3-3.6-0.5-1.8-0.2-3.6-0.3c22.4-0.8 38-12.5 38-29.5v-140.3c0-16.3 16.1-25.8 47.2-25.7l34.7 0.1v12.9h-6.8c-30.4-0.1-36.6 4.9-36.6 25.7v125.2c0 17.1-17.4 30-41 31.6 23.6 1.7 41 14.6 41 31.6v125.3c0 20.8 5.6 25.8 36.6 25.7h6.8v12.9h-34.7-0.6c-30.7 0-46.6-9.5-46.6-25.6zm1451.7 25.7l-34.8-0.1v-12.9h6.8c31.1 0 36.7-4.9 36.7-25.7v-125.3c0-17 17.4-29.9 41-31.6-23.6-1.6-41-14.5-41-31.6v-125.2c0-20.9-6.2-25.8-36.7-25.7h-6.8v-12.9l34.8-0.1c31-0.1 47.2 9.4 47.2 25.7v140.3c0 17 15.6 28.7 38 29.5q-1.8 0.1-3.6 0.3-1.9 0.2-3.6 0.5-1.8 0.3-3.6 0.8-1.8 0.4-3.5 0.9c-14.9 4.6-23.7 13.8-23.7 27.1v140.3c0 16.1-15.9 25.7-46.6 25.7zm-125.3-77.6v-93.6h-93.3v93.5h-50.1v-235.8h50.1v92.1h93.3v-92.1h50.1v235.8zm-242.1 0q-107.3 0-107.3-117.5v-1.1q1.1-117.3 107.7-117.2h81.6v50.1h-91.6c-3.4-0.2-6.9 0-10.2 0.6-3.4 0.6-6.7 1.6-9.8 3.1-3.1 1.4-6 3.2-8.7 5.3-2.7 2.2-5 4.6-7.1 7.3q-11.8 16.4-11.8 52.2v2.9q0 64.2 47.2 64.2h91.7v50.1zm-236.1 0q-4.5 0.2-9.1-0.2-4.5-0.3-9-1-4.5-0.8-8.8-2-4.4-1.2-8.7-2.9-3.3-1.3-6.5-3-3.2-1.7-6.2-3.8-3-2.1-5.7-4.4-2.7-2.4-5.2-5.1-2.2-2.5-4.2-5.2-2-2.7-3.7-5.6-1.6-3-3-6-1.3-3.1-2.3-6.3-1.1-3.2-1.8-6.5-0.8-3.3-1.3-6.6-0.5-3.3-0.8-6.7-0.3-3.4-0.3-6.7 0.1-1.8 0.1-3.5 0.1-1.8 0.3-3.5 0.1-1.7 0.4-3.4 0.2-1.7 0.5-3.5 0.3-1.7 0.7-3.5 0.4-1.8 1-3.5 0.5-1.7 1.2-3.4 0.6-1.7 1.4-3.4 0.7-1.5 1.6-3 0.9-1.6 1.9-3 0.9-1.4 2.1-2.8 1.1-1.4 2.3-2.6 1.2-1.3 2.6-2.4 1.4-1.1 2.9-2.1 1.5-0.9 3.1-1.7 1.6-0.8 3.3-1.3-3.3-1.5-6.3-3.6-2.9-2-5.5-4.6-2.5-2.7-4.5-5.7-2-3-3.3-6.4-1.4-3.8-2.5-7.7-1-3.9-1.7-7.9-0.7-4-1-8-0.3-4.1-0.2-8.1c-0.3-4.5 0-9 0.7-13.4 0.8-4.5 2-8.8 3.7-13 1.7-4.1 3.8-8.1 6.4-11.8 2.6-3.6 5.6-7 8.9-10q6-4.6 12.7-8.1 6.8-3.4 14-5.6 7.2-2.2 14.8-3 7.5-0.9 15-0.4h117.3v50.2h-123.4q-2 0-3.9 0.4-2 0.4-3.8 1.2-1.8 0.8-3.5 2-1.6 1.2-2.9 2.7c-1.9 2-3.3 4.3-4.3 6.8-1 2.5-1.6 5.2-1.6 7.9 0 2.7 0.4 5.4 1.4 8 0.9 2.5 2.3 4.8 4.1 6.9q1.5 1.5 3.2 2.7 1.7 1.2 3.6 2 1.9 0.7 4 1.1 2 0.4 4.1 0.3h123v50.1h-123.4q-2 0-3.9 0.4-2 0.5-3.8 1.3-1.8 0.8-3.5 1.9-1.6 1.2-2.9 2.7-1.5 1.6-2.6 3.4-1.1 1.8-1.9 3.8-0.8 2-1.1 4.2-0.4 2.1-0.3 4.2 0 2.1 0.3 4.2 0.4 2.1 1.1 4 0.8 2 1.9 3.8 1.1 1.7 2.6 3.2 1.4 1.6 3 2.7 1.7 1.2 3.6 2 1.8 0.9 3.8 1.3 2 0.3 4.1 0.3h123v50.2zm-191.1 0v-185.7h-55.4v-50.2h157.7v50.2h-52.2v185.7zm-122.5 0v-235.9h50.1v235.8zm-207.3 0v-72.7c-0.3-4.9-0.1-9.8 0.6-14.6 0.7-4.8 1.9-9.6 3.7-14.1 1.7-4.6 3.9-8.9 6.6-13 2.7-4.1 5.8-7.8 9.3-11.2 3.9-3.2 8-6 12.4-8.4 4.4-2.4 9-4.4 13.7-5.9 4.8-1.6 9.7-2.6 14.6-3.3 5-0.6 10-0.8 14.9-0.5h47.2q2 0 4-0.4 2-0.3 3.9-1.1 1.9-0.8 3.5-2 1.7-1.1 3.1-2.6 1.4-1.5 2.6-3.2 1.1-1.7 1.8-3.6 0.8-1.9 1.2-3.9 0.3-2 0.3-4 0-2.1-0.4-4.1-0.3-2-1.1-3.9-0.7-2-1.9-3.7-1.1-1.7-2.5-3.2-1.3-1.5-3-2.7-1.6-1.1-3.4-2-1.8-0.8-3.8-1.2-1.9-0.4-3.9-0.4h-123.4v-50.1h117.3q4.4-0.1 8.8 0.2 4.4 0.3 8.7 1 4.4 0.7 8.6 1.9 4.3 1.1 8.4 2.6 3.4 1.3 6.6 2.9 3.2 1.6 6.2 3.5 3 2 5.7 4.2 2.8 2.3 5.3 4.8 2.3 2.4 4.4 5.1 2 2.6 3.7 5.5 1.7 2.8 3.1 5.8 1.4 3.1 2.4 6.2 1.1 3.3 1.9 6.7 0.8 3.4 1.4 6.8 0.5 3.4 0.8 6.9 0.2 3.4 0.2 6.9 0 3.3-0.3 6.6-0.2 3.3-0.7 6.5-0.5 3.3-1.3 6.5-0.8 3.2-1.8 6.4-1 3.1-2.4 6.2-1.3 3-3 5.9-1.7 2.8-3.6 5.5-2 2.7-4.2 5.1-2.5 2.7-5.3 5-2.7 2.4-5.7 4.4-2.9 2.1-6.1 3.8-3.2 1.7-6.6 3.1-4.1 1.7-8.5 2.9-4.3 1.3-8.8 2.1-4.4 0.7-8.9 1.1-4.5 0.3-9 0.2h-48.3q-1.9 0-3.8 0.4-1.9 0.4-3.7 1.2-1.8 0.9-3.3 2.1-1.5 1.2-2.8 2.7-1.3 1.6-2.3 3.4-1 1.8-1.7 3.7-0.7 1.9-1 3.9-0.4 2.1-0.3 4.1v72.1zm-128.6 0q-4.5 0.1-9-0.2-4.6-0.3-9.1-1.1-4.4-0.8-8.8-2-4.4-1.2-8.7-2.8-3.3-1.4-6.5-3.1-3.2-1.7-6.2-3.8-3-2-5.7-4.4-2.7-2.4-5.2-5-2.2-2.5-4.2-5.2-2-2.8-3.6-5.7-1.7-2.9-3-6-1.4-3-2.4-6.2-1-3.3-1.8-6.5-0.8-3.3-1.3-6.7-0.5-3.3-0.8-6.6-0.2-3.4-0.2-6.8 0-1.7 0.1-3.5 0.1-1.7 0.2-3.4 0.2-1.7 0.4-3.5 0.2-1.7 0.5-3.4 0.3-1.8 0.8-3.5 0.4-1.8 0.9-3.5 0.5-1.8 1.2-3.5 0.7-1.6 1.4-3.3 0.8-1.6 1.6-3.1 0.9-1.5 1.9-2.9 1-1.5 2.1-2.8 1.1-1.4 2.3-2.7 1.2-1.2 2.6-2.4 1.4-1.1 2.9-2 1.5-1 3.2-1.7 1.6-0.8 3.3-1.4-3.3-1.4-6.3-3.5-3-2.1-5.5-4.7-2.6-2.6-4.5-5.6-2-3.1-3.4-6.4-1.4-3.8-2.5-7.7-1-3.9-1.7-7.9-0.7-4-1-8.1-0.3-4-0.2-8.1c-0.2-4.4 0-8.9 0.7-13.4 0.8-4.4 2-8.7 3.7-12.9 1.7-4.2 3.9-8.1 6.4-11.8 2.6-3.7 5.6-7.1 8.9-10.1q6-4.6 12.8-8 6.7-3.4 13.9-5.6 7.2-2.2 14.8-3.1 7.5-0.8 15-0.3h117.3v50.2h-123.4q-2-0.1-3.9 0.4-2 0.4-3.8 1.2-1.8 0.8-3.5 2-1.6 1.1-2.9 2.6c-1.9 2-3.3 4.3-4.3 6.8-1 2.6-1.6 5.2-1.6 8 0 2.7 0.4 5.4 1.4 7.9 0.9 2.5 2.3 4.9 4.1 6.9q1.4 1.5 3.2 2.7 1.7 1.2 3.6 2 1.9 0.8 4 1.1 2 0.4 4.1 0.3h123v50.2h-123.4q-2 0-3.9 0.4-2 0.4-3.8 1.2-1.8 0.8-3.5 2-1.6 1.2-2.9 2.7-1.5 1.5-2.6 3.3-1.1 1.9-1.9 3.9-0.8 2-1.1 4.1-0.4 2.1-0.3 4.3-0.1 2.1 0.3 4.1 0.4 2.1 1.1 4.1 0.8 1.9 1.9 3.7 1.1 1.8 2.6 3.3 1.4 1.5 3 2.7 1.7 1.2 3.6 2 1.8 0.8 3.8 1.2 2 0.4 4.1 0.4h123v50.1z"/>
</svg>